<mxfile host="app.diagrams.net" modified="2022-10-31T10:35:29.088Z" agent="5.0 (X11; Linux x86_64) AppleWebKit/537.36 (KHTML, like Gecko) Chrome/105.0.0.0 Safari/537.36" etag="15fjdTH01tUMM_ZvanCl" version="20.5.1" type="github">
  <diagram id="Or33N8EPDJmIvoWpYCI0" name="Page-1">
    <mxGraphModel dx="1896" dy="623" grid="1" gridSize="10" guides="1" tooltips="1" connect="1" arrows="1" fold="1" page="1" pageScale="1" pageWidth="827" pageHeight="1169" math="1" shadow="0">
      <root>
        <mxCell id="0" />
        <mxCell id="1" parent="0" />
        <mxCell id="RMTEwnq6Q48EXE_4IK2A-8" value="" style="rounded=1;whiteSpace=wrap;html=1;" vertex="1" parent="1">
          <mxGeometry x="70" y="525" width="620" height="335" as="geometry" />
        </mxCell>
        <mxCell id="RMTEwnq6Q48EXE_4IK2A-1" value="" style="endArrow=classic;html=1;rounded=0;" edge="1" parent="1">
          <mxGeometry width="50" height="50" relative="1" as="geometry">
            <mxPoint x="100" y="440" as="sourcePoint" />
            <mxPoint x="800" y="440" as="targetPoint" />
          </mxGeometry>
        </mxCell>
        <mxCell id="RMTEwnq6Q48EXE_4IK2A-2" value="time" style="text;html=1;align=center;verticalAlign=middle;resizable=0;points=[];autosize=1;strokeColor=none;fillColor=none;" vertex="1" parent="1">
          <mxGeometry x="750" y="440" width="50" height="30" as="geometry" />
        </mxCell>
        <mxCell id="RMTEwnq6Q48EXE_4IK2A-7" value="" style="edgeStyle=orthogonalEdgeStyle;rounded=0;orthogonalLoop=1;jettySize=auto;html=1;" edge="1" parent="1" source="RMTEwnq6Q48EXE_4IK2A-4" target="RMTEwnq6Q48EXE_4IK2A-6">
          <mxGeometry relative="1" as="geometry" />
        </mxCell>
        <mxCell id="RMTEwnq6Q48EXE_4IK2A-4" value="\(\pi_0\)&amp;nbsp;" style="rounded=1;whiteSpace=wrap;html=1;" vertex="1" parent="1">
          <mxGeometry x="90" y="570" width="120" height="60" as="geometry" />
        </mxCell>
        <mxCell id="RMTEwnq6Q48EXE_4IK2A-11" value="" style="edgeStyle=orthogonalEdgeStyle;rounded=0;orthogonalLoop=1;jettySize=auto;html=1;" edge="1" parent="1" source="RMTEwnq6Q48EXE_4IK2A-6" target="RMTEwnq6Q48EXE_4IK2A-10">
          <mxGeometry relative="1" as="geometry" />
        </mxCell>
        <mxCell id="RMTEwnq6Q48EXE_4IK2A-6" value="定价 \(P_0=\pi_0(S)\)" style="rounded=1;whiteSpace=wrap;html=1;" vertex="1" parent="1">
          <mxGeometry x="240" y="570" width="120" height="60" as="geometry" />
        </mxCell>
        <mxCell id="RMTEwnq6Q48EXE_4IK2A-9" value="&lt;span style=&quot;&quot;&gt;数据源 在&lt;/span&gt;状态S = information disclosure 的度量" style="text;html=1;align=center;verticalAlign=middle;resizable=0;points=[];autosize=1;strokeColor=none;fillColor=none;" vertex="1" parent="1">
          <mxGeometry x="40" y="525" width="280" height="30" as="geometry" />
        </mxCell>
        <mxCell id="RMTEwnq6Q48EXE_4IK2A-16" value="" style="edgeStyle=orthogonalEdgeStyle;rounded=0;orthogonalLoop=1;jettySize=auto;html=1;" edge="1" parent="1" source="RMTEwnq6Q48EXE_4IK2A-10" target="RMTEwnq6Q48EXE_4IK2A-15">
          <mxGeometry relative="1" as="geometry" />
        </mxCell>
        <mxCell id="RMTEwnq6Q48EXE_4IK2A-10" value="\(r_0, V_0\)" style="rounded=1;whiteSpace=wrap;html=1;" vertex="1" parent="1">
          <mxGeometry x="390" y="570" width="120" height="60" as="geometry" />
        </mxCell>
        <mxCell id="RMTEwnq6Q48EXE_4IK2A-23" value="" style="edgeStyle=orthogonalEdgeStyle;rounded=0;orthogonalLoop=1;jettySize=auto;html=1;" edge="1" parent="1" source="RMTEwnq6Q48EXE_4IK2A-15" target="RMTEwnq6Q48EXE_4IK2A-22">
          <mxGeometry relative="1" as="geometry">
            <Array as="points">
              <mxPoint x="590" y="710" />
              <mxPoint x="150" y="710" />
            </Array>
          </mxGeometry>
        </mxCell>
        <mxCell id="RMTEwnq6Q48EXE_4IK2A-15" value="\(Q_0\)" style="whiteSpace=wrap;html=1;rounded=1;" vertex="1" parent="1">
          <mxGeometry x="530" y="570" width="120" height="60" as="geometry" />
        </mxCell>
        <mxCell id="RMTEwnq6Q48EXE_4IK2A-18" value="前提：&lt;br&gt;时间折现的总收益最大化" style="text;html=1;align=center;verticalAlign=middle;resizable=0;points=[];autosize=1;strokeColor=none;fillColor=none;" vertex="1" parent="1">
          <mxGeometry x="10" y="50" width="160" height="40" as="geometry" />
        </mxCell>
        <mxCell id="RMTEwnq6Q48EXE_4IK2A-20" value="\(v_0(S)\)" style="rounded=1;whiteSpace=wrap;html=1;" vertex="1" parent="1">
          <mxGeometry x="680" y="710" width="120" height="60" as="geometry" />
        </mxCell>
        <mxCell id="RMTEwnq6Q48EXE_4IK2A-22" value="\(\pi_1\)" style="whiteSpace=wrap;html=1;rounded=1;" vertex="1" parent="1">
          <mxGeometry x="90" y="730" width="120" height="60" as="geometry" />
        </mxCell>
        <mxCell id="RMTEwnq6Q48EXE_4IK2A-36" value="" style="rounded=1;whiteSpace=wrap;html=1;" vertex="1" parent="1">
          <mxGeometry x="-763" y="530" width="620" height="335" as="geometry" />
        </mxCell>
        <mxCell id="RMTEwnq6Q48EXE_4IK2A-37" value="" style="edgeStyle=orthogonalEdgeStyle;rounded=0;orthogonalLoop=1;jettySize=auto;html=1;" edge="1" parent="1" source="RMTEwnq6Q48EXE_4IK2A-38" target="RMTEwnq6Q48EXE_4IK2A-40">
          <mxGeometry relative="1" as="geometry" />
        </mxCell>
        <mxCell id="RMTEwnq6Q48EXE_4IK2A-38" value="\(\pi_0\)&amp;nbsp;" style="rounded=1;whiteSpace=wrap;html=1;" vertex="1" parent="1">
          <mxGeometry x="-743" y="575" width="120" height="60" as="geometry" />
        </mxCell>
        <mxCell id="RMTEwnq6Q48EXE_4IK2A-39" value="" style="edgeStyle=orthogonalEdgeStyle;rounded=0;orthogonalLoop=1;jettySize=auto;html=1;" edge="1" parent="1" source="RMTEwnq6Q48EXE_4IK2A-40" target="RMTEwnq6Q48EXE_4IK2A-43">
          <mxGeometry relative="1" as="geometry" />
        </mxCell>
        <mxCell id="RMTEwnq6Q48EXE_4IK2A-40" value="定价 \(P_0=\pi_0(S)\)" style="rounded=1;whiteSpace=wrap;html=1;" vertex="1" parent="1">
          <mxGeometry x="-593" y="575" width="120" height="60" as="geometry" />
        </mxCell>
        <mxCell id="RMTEwnq6Q48EXE_4IK2A-41" value="&lt;span style=&quot;&quot;&gt;数据源 在&lt;/span&gt;状态S = information disclosure 的度量" style="text;html=1;align=center;verticalAlign=middle;resizable=0;points=[];autosize=1;strokeColor=none;fillColor=none;" vertex="1" parent="1">
          <mxGeometry x="-793" y="530" width="280" height="30" as="geometry" />
        </mxCell>
        <mxCell id="RMTEwnq6Q48EXE_4IK2A-42" value="" style="edgeStyle=orthogonalEdgeStyle;rounded=0;orthogonalLoop=1;jettySize=auto;html=1;" edge="1" parent="1" source="RMTEwnq6Q48EXE_4IK2A-43" target="RMTEwnq6Q48EXE_4IK2A-45">
          <mxGeometry relative="1" as="geometry" />
        </mxCell>
        <mxCell id="RMTEwnq6Q48EXE_4IK2A-43" value="\(r_0, V_0\)" style="rounded=1;whiteSpace=wrap;html=1;" vertex="1" parent="1">
          <mxGeometry x="-443" y="575" width="120" height="60" as="geometry" />
        </mxCell>
        <mxCell id="RMTEwnq6Q48EXE_4IK2A-44" value="" style="edgeStyle=orthogonalEdgeStyle;rounded=0;orthogonalLoop=1;jettySize=auto;html=1;" edge="1" parent="1" source="RMTEwnq6Q48EXE_4IK2A-45" target="RMTEwnq6Q48EXE_4IK2A-47">
          <mxGeometry relative="1" as="geometry">
            <Array as="points">
              <mxPoint x="-243" y="670" />
              <mxPoint x="-683" y="670" />
            </Array>
          </mxGeometry>
        </mxCell>
        <mxCell id="RMTEwnq6Q48EXE_4IK2A-45" value="\(Q_0\)" style="whiteSpace=wrap;html=1;rounded=1;" vertex="1" parent="1">
          <mxGeometry x="-303" y="575" width="120" height="60" as="geometry" />
        </mxCell>
        <mxCell id="RMTEwnq6Q48EXE_4IK2A-46" value="\(v_0(S)\)" style="rounded=1;whiteSpace=wrap;html=1;" vertex="1" parent="1">
          <mxGeometry x="-153" y="715" width="120" height="60" as="geometry" />
        </mxCell>
        <mxCell id="RMTEwnq6Q48EXE_4IK2A-51" value="" style="edgeStyle=orthogonalEdgeStyle;rounded=0;orthogonalLoop=1;jettySize=auto;html=1;" edge="1" parent="1" source="RMTEwnq6Q48EXE_4IK2A-47" target="RMTEwnq6Q48EXE_4IK2A-50">
          <mxGeometry relative="1" as="geometry" />
        </mxCell>
        <mxCell id="RMTEwnq6Q48EXE_4IK2A-47" value="\(\pi_1\)" style="whiteSpace=wrap;html=1;rounded=1;" vertex="1" parent="1">
          <mxGeometry x="-743" y="690" width="120" height="60" as="geometry" />
        </mxCell>
        <mxCell id="RMTEwnq6Q48EXE_4IK2A-48" value="一般性流程" style="text;html=1;align=center;verticalAlign=middle;resizable=0;points=[];autosize=1;strokeColor=none;fillColor=none;" vertex="1" parent="1">
          <mxGeometry x="-803" y="465" width="80" height="30" as="geometry" />
        </mxCell>
        <mxCell id="RMTEwnq6Q48EXE_4IK2A-50" value="\(\pi_1\)" style="whiteSpace=wrap;html=1;rounded=1;" vertex="1" parent="1">
          <mxGeometry x="-600" y="690" width="120" height="60" as="geometry" />
        </mxCell>
        <mxCell id="RMTEwnq6Q48EXE_4IK2A-52" value="notations:&amp;nbsp;&lt;span style=&quot;&quot;&gt;定价 \(P\)&lt;br&gt;&lt;/span&gt;" style="text;html=1;align=center;verticalAlign=middle;resizable=0;points=[];autosize=1;strokeColor=none;fillColor=none;" vertex="1" parent="1">
          <mxGeometry x="-768" y="400" width="130" height="30" as="geometry" />
        </mxCell>
      </root>
    </mxGraphModel>
  </diagram>
</mxfile>
